<?xml version="1.0" encoding="utf-8"?>
<!-- Generator: Adobe Illustrator 26.3.1, SVG Export Plug-In . SVG Version: 6.00 Build 0)  -->
<svg version="1.1" id="Group_20029" xmlns="http://www.w3.org/2000/svg" xmlns:xlink="http://www.w3.org/1999/xlink" x="0px"
	 y="0px" viewBox="0 0 30 30" style="enable-background:new 0 0 30 30;" xml:space="preserve">
<style type="text/css">
	.st0{clip-path:url(#SVGID_00000082355716377297866330000013254976840921321610_);}
	.st1{fill:#FFFFFF;}
</style>
<g>
	<defs>
		<rect id="SVGID_1_" x="0.5" y="0.5" width="29" height="29"/>
	</defs>
	<clipPath id="SVGID_00000052062991134616216410000004684695428203559311_">
		<use xlink:href="#SVGID_1_"  style="overflow:visible;"/>
	</clipPath>
	<g id="Group_20025" style="clip-path:url(#SVGID_00000052062991134616216410000004684695428203559311_);">
		<path id="Path_56330" class="st1" d="M15,3.1c3.9,0,4.3,0,5.8,0.1c0.9,0,1.8,0.2,2.7,0.5c0.6,0.2,1.2,0.6,1.7,1.1
			c0.5,0.5,0.9,1,1.1,1.7c0.3,0.9,0.5,1.8,0.5,2.7c0.1,1.5,0.1,2,0.1,5.8s0,4.3-0.1,5.8c0,0.9-0.2,1.8-0.5,2.7
			c-0.5,1.3-1.5,2.3-2.7,2.7c-0.9,0.3-1.8,0.5-2.7,0.5c-1.5,0.1-2,0.1-5.8,0.1s-4.3,0-5.8-0.1c-0.9,0-1.8-0.2-2.7-0.5
			c-0.6-0.2-1.2-0.6-1.7-1.1c-0.5-0.5-0.8-1-1.1-1.7c-0.3-0.9-0.5-1.8-0.5-2.7c-0.1-1.5-0.1-2-0.1-5.8s0-4.3,0.1-5.8
			c0-0.9,0.2-1.8,0.5-2.7c0.2-0.6,0.6-1.2,1.1-1.7c0.5-0.5,1-0.9,1.7-1.1c0.9-0.3,1.8-0.5,2.7-0.5C10.6,3.1,11.1,3.1,15,3.1 M15,0.5
			c-3.9,0-4.4,0-6,0.1c-1.2,0-2.4,0.3-3.5,0.7c-1,0.4-1.8,0.9-2.6,1.7C2.2,3.7,1.6,4.5,1.3,5.5C0.8,6.6,0.6,7.8,0.6,9
			c-0.1,1.5-0.1,2-0.1,6s0,4.4,0.1,6c0,1.2,0.3,2.4,0.7,3.5c0.4,1,0.9,1.8,1.7,2.6c0.7,0.7,1.6,1.3,2.6,1.7c1.1,0.4,2.3,0.6,3.5,0.7
			c1.5,0.1,2,0.1,6,0.1s4.4,0,6-0.1c1.2,0,2.4-0.3,3.5-0.7c1.9-0.8,3.5-2.3,4.2-4.2c0.4-1.1,0.6-2.3,0.7-3.5c0.1-1.5,0.1-2,0.1-6
			s0-4.4-0.1-6c0-1.2-0.3-2.4-0.7-3.5c-0.4-1-0.9-1.8-1.7-2.6c-0.7-0.7-1.6-1.3-2.6-1.7c-1.1-0.4-2.3-0.6-3.5-0.7
			C19.4,0.5,18.9,0.5,15,0.5"/>
		<path id="Path_56331" class="st1" d="M15,7.5c-4.1,0-7.4,3.3-7.4,7.4s3.3,7.4,7.4,7.4s7.4-3.3,7.4-7.4S19.1,7.5,15,7.5L15,7.5
			 M15,19.8c-2.7,0-4.8-2.2-4.8-4.8c0-2.7,2.2-4.8,4.8-4.8c2.7,0,4.8,2.2,4.8,4.8C19.8,17.6,17.6,19.8,15,19.8L15,19.8"/>
		<path id="Path_56332" class="st1" d="M24.4,7.2c0,1-0.8,1.7-1.7,1.7S21,8.2,21,7.2s0.8-1.7,1.7-1.7l0,0
			C23.6,5.5,24.4,6.3,24.4,7.2"/>
	</g>
</g>
</svg>
