<?xml version="1.0" encoding="utf-8"?>
<!-- Generator: Adobe Illustrator 26.3.1, SVG Export Plug-In . SVG Version: 6.00 Build 0)  -->
<svg version="1.1" id="Group_20031" xmlns="http://www.w3.org/2000/svg" xmlns:xlink="http://www.w3.org/1999/xlink" x="0px"
	 y="0px" viewBox="0 0 30 30" style="enable-background:new 0 0 30 30;" xml:space="preserve">
<style type="text/css">
	.st0{clip-path:url(#SVGID_00000116222382403073929180000013905268753206691721_);}
	.st1{fill:#FFFFFF;}
</style>
<g>
	<defs>
		<rect id="SVGID_1_" x="1.7" y="4.2" width="26.7" height="21.7"/>
	</defs>
	<clipPath id="SVGID_00000073694491395910516060000018332530491890925719_">
		<use xlink:href="#SVGID_1_"  style="overflow:visible;"/>
	</clipPath>
	<g id="Group_20030" style="clip-path:url(#SVGID_00000073694491395910516060000018332530491890925719_);">
		<path id="Path_56333" class="st1" d="M10.1,25.8c8.5,0.1,15.5-6.8,15.6-15.4c0-0.1,0-0.1,0-0.2c0-0.2,0-0.5,0-0.7
			c1.1-0.8,2-1.7,2.7-2.8c-1,0.4-2.1,0.7-3.1,0.9c1.1-0.7,2-1.8,2.4-3c-1.1,0.6-2.2,1.1-3.5,1.3c-2.1-2.2-5.5-2.3-7.7-0.2
			C15,7,14.4,9,14.8,10.9c-4.4-0.2-8.5-2.3-11.3-5.7c-1.5,2.5-0.7,5.7,1.7,7.3c-0.9,0-1.7-0.3-2.5-0.7c0,0,0,0,0,0.1
			c0,2.6,1.8,4.8,4.4,5.4c-0.8,0.2-1.7,0.3-2.5,0.1c0.7,2.2,2.8,3.8,5.1,3.8c-1.9,1.5-4.3,2.3-6.8,2.3c-0.4,0-0.9,0-1.3-0.1
			C4.2,25,7.1,25.8,10.1,25.8"/>
	</g>
</g>
</svg>
